<svg width="186" height="116" viewBox="0 0 186 116" fill="none" xmlns="http://www.w3.org/2000/svg">
<path d="M18.5982 6.5957H1.66138V68.2123V33.6158C1.66138 22.5822 8.37728 12.6519 18.5982 8.5082V6.5957Z" fill="#FFC843"/>
<path d="M28.7457 6.57146C25.2652 6.57146 21.8337 7.23347 18.6228 8.53299V33.6406C18.6228 28.0502 23.1573 23.5142 28.7457 23.5142C34.3341 23.5142 38.8686 28.0502 38.8686 33.6406V68.2371V33.6406C38.8686 26.2113 41.9324 19.1007 47.3248 14.0008C42.3246 9.21952 35.6577 6.54694 28.7457 6.57146Z" fill="#C64A9B"/>
<path d="M18.5982 8.53223C8.37728 12.676 1.68589 22.6062 1.66138 33.6398V68.2364H18.5982V8.53223Z" fill="#F36C21"/>
<path d="M65.9527 6.57129C59.0407 6.57129 52.3738 9.21936 47.3491 14.0006C52.766 19.1006 55.8053 26.2111 55.8053 33.6404C55.8053 28.0501 60.3397 23.514 65.9282 23.514C71.5166 23.514 76.051 28.0501 76.051 33.6404V68.2369H92.9879V33.6404C92.9879 18.6837 80.8796 6.57129 65.9527 6.57129Z" fill="#00B3E2"/>
<path d="M47.3492 13.9756C41.9324 19.0756 38.8931 26.1861 38.8931 33.6154V68.212H55.8299V33.6399C55.8054 26.1861 52.7416 19.1001 47.3492 13.9756Z" fill="#DA2E2E"/>
<path d="M100.831 79.7122C122.423 79.7122 139.926 62.2029 139.926 40.6041C139.926 19.0054 122.423 1.49609 100.831 1.49609C79.2402 1.49609 61.7371 19.0054 61.7371 40.6041C61.7371 62.2029 79.2402 79.7122 100.831 79.7122Z" fill="white"/>
<path d="M96.8607 7.15924C80.4631 7.18376 67.1538 20.9635 67.1538 37.9553C67.1538 55.2413 80.6101 68.7514 97.7921 68.7514C106.665 68.7514 113.773 65.8091 121.543 58.9437C121.543 58.9437 114.729 52.1029 113.601 43.325C113.601 43.325 102.376 51.4899 97.4734 51.4899C95.0469 51.5879 92.6448 50.9259 90.586 49.6019L90.0467 49.8226L73.5021 56.9086C70.4137 52.8875 68.3793 48.1062 67.5705 43.0308L84.3358 35.8467V35.8221C84.826 31.0899 87.7182 27.0198 91.885 25.0827C93.3557 24.4207 94.9243 24.0775 96.5175 24.0775C99.3853 24.0775 102.155 25.0582 104.434 26.8972C104.508 26.9707 104.606 27.0443 104.68 27.1178L121.102 20.0808C122.229 21.7236 123.185 23.489 123.994 25.3279C119.19 14.2698 108.577 7.13472 96.8607 7.15924ZM123.994 25.4015L124.018 25.4751L123.994 25.4015ZM124.043 25.5486V25.5731V25.5486ZM127.425 33.8361L110.954 40.8976L127.425 33.8361Z" fill="#F36C21"/>
<path d="M123.969 25.377L123.994 25.4015L123.969 25.377ZM124.018 25.4505L124.043 25.5241L124.018 25.4505ZM124.067 25.5731L124.116 25.6957L124.067 25.5731ZM124.116 25.7202L124.166 25.8183L124.116 25.7202ZM124.166 25.8428L124.215 25.9654L127.425 33.8361L124.215 25.9654L124.166 25.8428ZM104.68 27.1423L94.5812 31.4577L84.8995 35.6014L84.3112 35.8466C83.5024 43.0552 87.1055 47.0028 90.0712 49.2341C90.2428 49.3567 90.4144 49.4793 90.586 49.6019L108.748 41.8293L110.979 40.873C110.954 40.8485 109.018 31.2861 104.68 27.1423Z" fill="#C64A9B"/>
<path d="M121.077 20.1299L104.679 27.1669C109.018 31.2861 110.979 40.8486 110.979 40.8976L127.45 33.8361L124.239 25.9654L124.19 25.8428V25.8183L124.141 25.7202V25.6957L124.092 25.5731V25.5486L124.067 25.4751L124.043 25.4015L124.018 25.377C123.185 23.538 122.205 21.7727 121.077 20.1299ZM84.3111 35.8712L67.5459 43.0553C68.3547 48.1308 70.3891 52.912 73.4775 56.9331L90.0221 49.8471L90.5614 49.6264C90.3898 49.5038 90.2182 49.3812 90.0466 49.2586C87.1054 47.0274 83.5023 43.0798 84.3111 35.8712Z" fill="#D82126"/>
<path d="M136.151 26.1377H123.038V43.6444H136.151V26.1377Z" fill="white"/>
<path d="M146.519 0C131.617 0 118.013 8.60622 111.469 22.1898C104.925 35.7734 106.591 51.9561 115.734 63.8724C120.293 59.7041 126.2 57.3993 132.328 57.3993H146.519C136.813 57.3993 128.945 49.4306 128.945 39.5739C128.945 29.7417 136.813 21.7485 146.519 21.7485C156.225 21.7485 164.093 29.7172 164.093 39.5739V21.2826C164.069 16.1826 165.883 11.2298 169.192 7.38027C162.574 2.57451 154.632 0 146.519 0Z" fill="white"/>
<path d="M145.049 5.36914C132.94 5.36914 121.861 12.3816 116.543 23.4398C111.224 34.4979 112.572 47.6892 120.023 57.3988C123.724 54.0151 128.528 52.1272 133.504 52.1272H145.049C137.156 52.1272 130.759 45.6296 130.759 37.6118C130.759 29.5941 137.156 23.0965 145.049 23.0965C152.941 23.0965 159.338 29.5941 159.338 37.6118V22.7042C159.338 18.5359 160.809 14.5148 163.481 11.3763C158.088 7.45327 151.642 5.36914 145.049 5.36914Z" fill="#EF473E"/>
<path d="M185.099 5.36938H176.373C171.839 5.34486 167.5 7.1838 164.314 10.4448C164.02 10.7391 163.726 11.0578 163.456 11.3766C171.79 17.4328 176.741 27.1914 176.741 37.6121V23.0722H185.074L185.099 5.36938Z" fill="#00B3E2"/>
<path d="M120.93 56.9336C114.704 62.5975 112.572 71.596 115.562 79.5157C118.553 87.4354 126.053 92.6825 134.411 92.6825H157.5C159.02 92.6825 160.245 93.933 160.245 95.4777C160.245 97.0224 159.02 98.2729 157.5 98.2729H137.23V116H157.5C168.652 116 177.672 106.806 177.672 95.5022C177.672 84.1989 168.628 75.0042 157.5 75.0042H134.411C132.891 75.0042 131.666 73.7537 131.666 72.209C131.666 70.6643 132.891 69.4138 134.411 69.4138H145.955C136.176 69.3893 126.935 64.8042 120.93 56.9336Z" fill="#00B3E2"/>
<path d="M163.456 11.377C160.784 14.5154 159.314 18.5365 159.314 22.7048V37.6124C159.314 45.6302 152.917 52.1278 145.024 52.1278H133.48C128.504 52.1278 123.7 53.9912 119.999 57.3994C126.004 65.2455 135.244 69.8551 145.024 69.8551C158.824 69.8551 171.03 60.8076 175.246 47.4691C179.462 34.1307 174.682 19.5173 163.456 11.377Z" fill="#C64A9B"/>
<path d="M10.857 81.2463C10.773 81.0573 10.626 80.9943 10.458 81.0783C9.681 81.5193 8.925 81.6663 8.022 81.6663C6.132 81.6663 4.872 80.2803 4.872 78.2013C4.872 76.1223 6.132 74.7363 8.022 74.7363C8.925 74.7363 9.681 74.8833 10.458 75.3243C10.626 75.4083 10.773 75.3453 10.857 75.1563L12.243 72.2373C12.306 72.0903 12.222 71.9433 12.054 71.8593C10.836 71.1033 9.198 70.6413 7.644 70.6413C3.318 70.6413 0.42 73.6653 0.42 78.2013C0.42 82.7373 3.318 85.7613 7.644 85.7613C9.198 85.7613 10.836 85.2993 12.054 84.5433C12.222 84.4593 12.306 84.3123 12.243 84.1653L10.857 81.2463ZM22.3758 71.2293C22.3128 71.1033 22.0818 70.9563 21.8718 70.9563H17.5878C17.3778 70.9563 17.1468 71.1033 17.0838 71.2293L12.3378 85.1733C12.2748 85.2993 12.3588 85.4463 12.5268 85.4463H16.6848C16.8738 85.4463 17.0418 85.3413 17.1258 85.1733L17.7558 82.9683H21.7038L22.3338 85.1733C22.4178 85.3413 22.5858 85.4463 22.7748 85.4463H26.9328C27.1008 85.4463 27.1848 85.2993 27.1218 85.1733L22.3758 71.2293ZM20.8638 79.9653H18.5958L19.7298 75.9753L20.8638 79.9653ZM25.1905 70.9563C25.0435 70.9563 24.8965 71.1033 24.8965 71.2713V74.4423C24.8965 74.6103 25.0435 74.7363 25.1905 74.7363H28.6765V85.1523C28.6765 85.2993 28.8235 85.4463 28.9915 85.4463H32.7085C32.8765 85.4463 33.0025 85.2993 33.0025 85.1523V74.7363H36.1315C36.2785 74.7363 36.4465 74.6103 36.4675 74.4423L36.7825 71.2503C36.8035 71.1033 36.6775 70.9563 36.4885 70.9563H25.1905ZM45.317 70.9563C45.149 70.9563 45.023 71.1033 45.023 71.2713V76.7523H42.083V71.2713C42.083 71.1033 41.957 70.9563 41.768 70.9563H37.841C37.694 70.9563 37.547 71.1033 37.547 71.2713V85.1523C37.547 85.2993 37.694 85.4463 37.841 85.4463H41.768C41.957 85.4463 42.083 85.2993 42.083 85.1523V80.4483H45.023V85.1523C45.023 85.2993 45.149 85.4463 45.317 85.4463H49.244C49.433 85.4463 49.559 85.2993 49.559 85.1523V71.2713C49.559 71.1033 49.433 70.9563 49.244 70.9563H45.317ZM55.3877 81.6663V79.8813H59.4617C59.6507 79.8813 59.7977 79.7343 59.8187 79.6083L60.1127 76.6683C60.1337 76.5423 60.0287 76.3953 59.8397 76.3953H55.3877V74.7363H60.8687C61.0577 74.7363 61.2047 74.6103 61.2047 74.4213V71.2503C61.2047 71.1033 61.0577 70.9563 60.8687 70.9563H51.3137C51.1247 70.9563 51.0197 71.0613 51.0197 71.2503V85.1313C51.0617 85.2783 51.2087 85.4463 51.3557 85.4463H61.1207C61.2887 85.4463 61.4357 85.2993 61.4357 85.1523V81.9393C61.4357 81.7923 61.2887 81.6663 61.1207 81.6663H55.3877ZM71.2596 79.7133C72.8346 79.0413 73.8426 77.3613 73.8426 75.7023C73.8426 72.8463 71.7006 70.9563 68.4666 70.9563H62.9226C62.7546 70.9563 62.6076 71.1033 62.6076 71.2713V85.1523C62.6076 85.2993 62.7546 85.4463 62.9226 85.4463H66.6186C66.8076 85.4463 66.9546 85.2993 66.9546 85.1523V80.5323H67.2066L69.3906 85.1103C69.4746 85.2993 69.6636 85.4463 69.8736 85.4463H74.3676C74.5566 85.4463 74.7036 85.2993 74.5986 85.1103L71.2596 79.7133ZM66.9546 76.9623V74.7363H68.1936C68.9076 74.7363 69.3906 75.1773 69.3906 75.8493C69.3906 76.5213 68.9076 76.9623 68.1936 76.9623H66.9546ZM75.6984 70.9563C75.5514 70.9563 75.4044 71.1033 75.4044 71.2713V85.1523C75.4044 85.2993 75.5514 85.4463 75.6984 85.4463H79.4154C79.6044 85.4463 79.7304 85.2993 79.7304 85.1523V71.2713C79.7304 71.1033 79.6044 70.9563 79.4154 70.9563H75.6984ZM89.5862 70.9563C89.4392 70.9563 89.2922 71.1033 89.2922 71.2713V77.7603L85.6592 71.2293C85.5752 71.0613 85.3652 70.9563 85.1762 70.9563H81.5432C81.3752 70.9563 81.2492 71.1033 81.2492 71.2713V85.1523C81.2492 85.2993 81.3752 85.4463 81.5432 85.4463H85.2602C85.4492 85.4463 85.5752 85.2993 85.5752 85.1523V78.6423L89.2292 85.1733C89.3342 85.3413 89.5232 85.4463 89.6702 85.4463H93.3032C93.4922 85.4463 93.6182 85.2993 93.6182 85.1523V71.2713C93.6182 71.1033 93.4922 70.9563 93.3032 70.9563H89.5862ZM99.459 81.6663V79.8813H103.533C103.722 79.8813 103.869 79.7343 103.89 79.6083L104.184 76.6683C104.205 76.5423 104.1 76.3953 103.911 76.3953H99.459V74.7363H104.94C105.129 74.7363 105.276 74.6103 105.276 74.4213V71.2503C105.276 71.1033 105.129 70.9563 104.94 70.9563H95.385C95.196 70.9563 95.091 71.0613 95.091 71.2503V85.1313C95.133 85.2783 95.28 85.4463 95.427 85.4463H105.192C105.36 85.4463 105.507 85.2993 105.507 85.1523V81.9393C105.507 81.7923 105.36 81.6663 105.192 81.6663H99.459Z" fill="#DA2E2E"/>
</svg>
